# xmcd
# 
# Track frame offsets:
#	150
#	10850
#	28900
#	41000
#	53300
#	65250
#	75700
#	89975
#	100075
#	109400
#	122225
#	134450
#	146750
#	158175
#	172150
#	183200
#
# Disc length: 2632 seconds
#
# Revision: 1
# Processed by: cddbd v1.4PL0 Copyright (c) Steve Scherf et al.
# Submitted via: Audio-CD-Archiv 2.10.438
#
DISCID=e00a4610
DTITLE=Dean Martin - Gold Vol. 2 CD1
DYEAR=1900
DGENRE=blues
TTITLE0=Tik-A-Tee, Tik-A-Tay
TTITLE1=Honey
TTITLE2=Things (with Nancy Sinatra)
TTITLE3=Everybody Loves Somebody
TTITLE4=Sam's Song (with Sammy Davis jr.)
TTITLE5=I'm Gonna Change Everything
TTITLE6=Green, Green Grass Of Home
TTITLE7=Somewhere There Is A Someone
TTITLE8=Come Running Back
TTITLE9=A Million And One
TTITLE10=Tie A Yellow Ribbon
TTITLE11=I Can't Help It (If I'm Still In Love With You)
TTITLE12=In The Chapel In The Moonlight
TTITLE13=Here We Go Again
TTITLE14=Gentle On My Mind
TTITLE15=I take A Lot OfPride In What I Am
EXTD=
EXTT0=
EXTT1=
EXTT2=
EXTT3=
EXTT4=
EXTT5=
EXTT6=
EXTT7=
EXTT8=
EXTT9=
EXTT10=
EXTT11=
EXTT12=
EXTT13=
EXTT14=
EXTT15=
PLAYORDER=
